<?xml version="1.0" encoding="utf-8"?>
<!-- Generator: Adobe Illustrator 27.0.0, SVG Export Plug-In . SVG Version: 6.00 Build 0)  -->
<svg version="1.1" xmlns="http://www.w3.org/2000/svg" xmlns:xlink="http://www.w3.org/1999/xlink" x="0px" y="0px"
	 viewBox="0 0 130.79 102.54" style="enable-background:new 0 0 130.79 102.54;" xml:space="preserve">
<style type="text/css">
	.st0{fill:#000b30;}
	.st1{fill:#5fd3f2;}
</style>
<g id="BACKGROUND">
</g>
<g id="OBJECTS">
	<g>
		<g>
			<path class="st0" d="M103.18,85.77c1.32-0.34,2.85-0.57,4.56-0.57c0.36,0,0.71,0.01,1.07,0.03c-1.1-1.99-1.7-3.91-2-5.58
				c-0.17-0.23-0.31-0.44-0.4-0.61c-0.06-0.03-0.12-0.05-0.17-0.08C96.84,75,88.85,68.33,83.17,59.87l-1.46-2.18l-1.26,6.71
				l1.65,7.44l5.89,3.35c5.19,2.95,9.93,6.51,14.36,10.46C102.56,85.65,102.85,85.7,103.18,85.77z"/>
			<path class="st1" d="M126.47,83.62c0,0-4.41-1.1-9.6,1.49c-0.6,0.3-1.16,0.68-1.65,1.14c-0.07,0.07-0.17,0.15-0.29,0.23
				c-0.22,0.14-0.52,0.3-0.94,0.46c-0.25,0.09-0.54,0.18-0.87,0.27c-0.06-0.34-0.11-0.64-0.13-0.9c-0.04-0.41-0.03-0.74,0-0.98
				c0.03-0.27,0.09-0.45,0.15-0.58c0.1-0.22,0.19-0.45,0.21-0.7c0.52-6.47-2.76-10.42-2.76-10.42s-0.61-0.82-1.16-0.69
				c-0.56,0.13-0.74,1.12-0.74,1.12s-1.01,4.01,1.16,8.89c0.22,0.51,0.48,1.03,0.78,1.56c0.02,0.03,0.04,0.07,0.06,0.1
				c0.13,0.23,0.32,0.42,0.52,0.59c0.21,0.17,0.51,0.54,0.81,1.34c0.09,0.25,0.18,0.53,0.27,0.86c-0.34,0.07-0.64,0.11-0.9,0.14
				c-0.85,0.08-1.3-0.04-1.55-0.15c-0.24-0.11-0.49-0.19-0.75-0.21c-0.03,0-0.07,0-0.1-0.01c-0.52-0.04-1.02-0.05-1.5-0.05
				c-5.49,0.08-8.78,2.82-8.78,2.82s-0.82,0.6-0.69,1.16c0.12,0.56,1.12,0.75,1.12,0.75s4.98,1.25,10.59-2.03
				c0.21-0.13,0.39-0.3,0.54-0.49c0.09-0.11,0.23-0.24,0.46-0.39c0.21-0.14,0.5-0.28,0.88-0.43c0.25-0.1,0.53-0.19,0.86-0.27
				c0.07,0.34,0.11,0.64,0.14,0.9c0.04,0.45,0.03,0.78-0.01,1.04c-0.03,0.15-0.05,0.27-0.08,0.37c-0.24,0.72-0.32,1.49-0.32,2.25
				c0,5.64,2.82,9.02,2.82,9.02s0.6,0.82,1.16,0.69c0.56-0.12,0.75-1.12,0.75-1.12s1.11-4.45-1.53-9.66
				c-0.3-0.59-0.71-1.13-1.16-1.63c-0.05-0.05-0.1-0.12-0.15-0.19c-0.15-0.22-0.33-0.54-0.5-0.99c-0.1-0.25-0.19-0.54-0.27-0.87
				c0.34-0.06,0.64-0.11,0.9-0.14c0.49-0.04,0.85-0.02,1.12,0.03c0.09,0.01,0.17,0.03,0.23,0.05c0.64,0.18,1.28,0.32,1.95,0.34
				c5.85,0.12,9.39-2.81,9.39-2.81s0.82-0.61,0.69-1.16C127.47,83.8,126.47,83.62,126.47,83.62z"/>
			<path class="st0" d="M48.92,57.93l-1.3,1.94C41.94,68.33,33.95,75,24.56,78.95c-0.05,0.03-0.11,0.05-0.17,0.08
				c-0.09,0.17-0.23,0.38-0.4,0.61c-0.3,1.68-0.9,3.6-2,5.58c0.36-0.02,0.72-0.03,1.07-0.03c1.71,0,3.23,0.23,4.56,0.57
				c0.33-0.07,0.61-0.12,0.83-0.12c4.42-3.95,9.17-7.51,14.36-10.46l5.88-3.34l1.52-6.86L48.92,57.93z"/>
			<path class="st1" d="M32.09,89.95c0,0-3.29-2.74-8.78-2.82c-0.48-0.01-0.98,0.01-1.5,0.05c-0.03,0.01-0.07,0.01-0.1,0.01
				c-0.26,0.03-0.51,0.1-0.75,0.21c-0.25,0.11-0.71,0.23-1.55,0.15c-0.26-0.03-0.56-0.06-0.9-0.14c0.09-0.34,0.18-0.62,0.27-0.86
				c0.3-0.79,0.6-1.16,0.81-1.34c0.2-0.17,0.39-0.36,0.52-0.59c0.02-0.03,0.05-0.07,0.06-0.1c0.3-0.52,0.56-1.05,0.78-1.56
				c2.17-4.88,1.16-8.89,1.16-8.89s-0.19-0.99-0.74-1.12c-0.56-0.13-1.16,0.69-1.16,0.69s-3.29,3.95-2.76,10.42
				c0.02,0.25,0.1,0.48,0.21,0.7c0.06,0.13,0.12,0.31,0.15,0.58c0.03,0.25,0.04,0.57,0,0.98c-0.02,0.26-0.06,0.56-0.13,0.9
				c-0.34-0.09-0.63-0.18-0.87-0.27c-0.42-0.16-0.72-0.32-0.94-0.46c-0.12-0.08-0.22-0.16-0.29-0.23c-0.48-0.46-1.05-0.85-1.65-1.14
				c-5.19-2.59-9.6-1.49-9.6-1.49s-1,0.18-1.13,0.74c-0.12,0.56,0.7,1.16,0.7,1.16s3.53,2.94,9.39,2.81
				c0.66-0.02,1.31-0.15,1.95-0.34c0.06-0.02,0.14-0.04,0.23-0.05c0.26-0.05,0.63-0.06,1.12-0.03c0.26,0.03,0.56,0.07,0.9,0.14
				c-0.08,0.34-0.18,0.62-0.27,0.87c-0.17,0.45-0.34,0.77-0.5,0.99c-0.05,0.07-0.1,0.14-0.15,0.19c-0.45,0.5-0.86,1.04-1.16,1.63
				c-2.64,5.22-1.53,9.66-1.53,9.66s0.19,1,0.75,1.12c0.56,0.13,1.16-0.69,1.16-0.69s2.82-3.39,2.82-9.02
				c0-0.76-0.08-1.53-0.32-2.25c-0.03-0.1-0.06-0.22-0.08-0.37c-0.03-0.26-0.05-0.59-0.01-1.04c0.03-0.26,0.06-0.56,0.14-0.9
				c0.34,0.08,0.62,0.17,0.86,0.27c0.39,0.14,0.67,0.29,0.88,0.43c0.23,0.15,0.37,0.28,0.45,0.39c0.16,0.19,0.34,0.36,0.55,0.49
				c5.61,3.27,10.59,2.03,10.59,2.03s1-0.19,1.13-0.75C32.91,90.55,32.09,89.95,32.09,89.95z"/>
			<path class="st0" d="M24.45,16.77c-1.32,0.34-2.86,0.57-4.57,0.57c-0.36,0-0.72-0.01-1.07-0.03c1.1,1.99,1.7,3.91,2,5.58
				c0.17,0.23,0.31,0.44,0.4,0.61c5.7,2.38,11.17,5.24,16.27,8.77l8.87,11.39l-0.26-1.41c-1.79-4.13-2.79-8.48-2.98-12.94
				l-3.49-1.99c-5.19-2.94-9.93-6.51-14.35-10.46C25.05,16.88,24.77,16.84,24.45,16.77z"/>
			<path class="st1" d="M10.74,17.44c0.6-0.3,1.17-0.68,1.65-1.15c0.08-0.07,0.17-0.15,0.3-0.23c0.21-0.14,0.52-0.3,0.94-0.46
				c0.25-0.09,0.53-0.19,0.87-0.27c0.06,0.34,0.1,0.64,0.13,0.9c0.04,0.41,0.03,0.73,0,0.98c-0.03,0.26-0.1,0.45-0.15,0.57
				c-0.1,0.22-0.18,0.46-0.2,0.7c-0.52,6.47,2.76,10.42,2.76,10.42s0.6,0.82,1.16,0.7c0.56-0.13,0.74-1.13,0.74-1.13
				s1.01-4.03-1.18-8.92c-0.22-0.5-0.47-1.01-0.77-1.52c-0.02-0.04-0.04-0.07-0.06-0.11c-0.14-0.23-0.32-0.42-0.52-0.59
				c-0.2-0.17-0.5-0.54-0.8-1.33c-0.09-0.25-0.18-0.54-0.27-0.87c0.34-0.06,0.64-0.11,0.9-0.14c0.84-0.07,1.3,0.04,1.55,0.15
				c0.24,0.11,0.48,0.19,0.75,0.21c0.03,0,0.06,0.01,0.1,0.01c0.52,0.04,1.02,0.05,1.5,0.05c5.49-0.08,8.78-2.81,8.78-2.81
				s0.82-0.61,0.7-1.16c-0.13-0.55-1.13-0.74-1.13-0.74s-4.98-1.25-10.59,2.03c-0.21,0.12-0.39,0.3-0.55,0.49
				c-0.08,0.1-0.23,0.24-0.46,0.38c-0.21,0.14-0.49,0.28-0.88,0.43c-0.25,0.1-0.54,0.19-0.87,0.28c-0.06-0.34-0.11-0.64-0.13-0.9
				c-0.04-0.44-0.03-0.78,0.01-1.04c0.02-0.15,0.05-0.26,0.08-0.37c0.23-0.72,0.32-1.49,0.32-2.25c0-5.64-2.81-9.02-2.81-9.02
				s-0.6-0.82-1.16-0.69c-0.56,0.13-0.74,1.12-0.74,1.12s-1.11,4.45,1.52,9.66c0.3,0.6,0.72,1.13,1.16,1.63
				c0.05,0.05,0.1,0.12,0.15,0.19c0.15,0.21,0.32,0.53,0.5,0.99c0.09,0.25,0.18,0.53,0.27,0.86c-0.34,0.07-0.64,0.11-0.9,0.14
				c-0.48,0.05-0.85,0.03-1.11-0.02c-0.09-0.02-0.17-0.04-0.24-0.06c-0.63-0.18-1.28-0.32-1.94-0.33c-5.85-0.12-9.39,2.81-9.39,2.81
				s-0.82,0.6-0.69,1.16c0.13,0.56,1.13,0.75,1.13,0.75S5.55,20.03,10.74,17.44z"/>
			<path class="st0" d="M84.31,43.87l9.01-11.58c5.09-3.53,10.57-6.39,16.27-8.77c0.09-0.17,0.23-0.39,0.4-0.61
				c0.3-1.68,0.9-3.6,2-5.58c-0.35,0.02-0.72,0.03-1.07,0.03c-1.7,0-3.23-0.23-4.56-0.57c-0.33,0.07-0.61,0.11-0.83,0.12
				c-4.42,3.95-9.16,7.52-14.35,10.46l-3.5,1.99c-0.19,4.61-1.25,9.08-3.14,13.33L84.31,43.87z"/>
			<path class="st1" d="M130.08,17.02c0,0-3.53-2.94-9.39-2.81c-0.66,0.01-1.31,0.15-1.94,0.33c-0.07,0.02-0.15,0.04-0.24,0.06
				c-0.26,0.05-0.63,0.06-1.11,0.02c-0.26-0.03-0.56-0.06-0.9-0.14c0.09-0.34,0.18-0.62,0.27-0.86c0.17-0.46,0.34-0.77,0.5-0.99
				c0.05-0.08,0.1-0.14,0.16-0.19c0.44-0.5,0.85-1.03,1.16-1.63c2.63-5.22,1.52-9.66,1.52-9.66s-0.19-0.99-0.74-1.12
				c-0.56-0.13-1.16,0.69-1.16,0.69s-2.81,3.39-2.82,9.02c0,0.76,0.09,1.53,0.32,2.25c0.03,0.1,0.06,0.22,0.08,0.37
				c0.03,0.26,0.05,0.6,0.01,1.04c-0.03,0.26-0.06,0.56-0.13,0.9c-0.34-0.09-0.63-0.18-0.87-0.28c-0.39-0.14-0.67-0.29-0.88-0.43
				c-0.23-0.14-0.37-0.28-0.46-0.38c-0.15-0.19-0.34-0.37-0.55-0.49c-5.6-3.28-10.59-2.03-10.59-2.03s-1,0.19-1.13,0.74
				c-0.12,0.56,0.69,1.16,0.69,1.16s3.29,2.73,8.79,2.81c0.48,0.01,0.99-0.01,1.5-0.05c0.03,0,0.06-0.01,0.1-0.01
				c0.26-0.02,0.51-0.1,0.75-0.21c0.25-0.11,0.71-0.22,1.55-0.15c0.26,0.03,0.56,0.07,0.9,0.14c-0.09,0.34-0.18,0.63-0.27,0.87
				c-0.3,0.79-0.6,1.16-0.81,1.33c-0.2,0.17-0.38,0.36-0.52,0.59c-0.02,0.04-0.04,0.07-0.06,0.11c-0.3,0.52-0.55,1.04-0.78,1.54
				c-2.17,4.88-1.16,8.9-1.16,8.9s0.19,1,0.74,1.13c0.56,0.12,1.16-0.7,1.16-0.7s3.29-3.95,2.76-10.42c-0.02-0.24-0.1-0.48-0.21-0.7
				c-0.05-0.12-0.12-0.31-0.15-0.57c-0.03-0.25-0.04-0.57,0-0.98c0.02-0.26,0.06-0.56,0.13-0.9c0.34,0.08,0.63,0.18,0.87,0.27
				c0.42,0.16,0.72,0.32,0.94,0.46c0.12,0.08,0.22,0.16,0.29,0.23c0.48,0.47,1.05,0.85,1.65,1.15c5.18,2.59,9.59,1.49,9.59,1.49
				s1-0.19,1.13-0.75C130.91,17.62,130.08,17.02,130.08,17.02z"/>
			<g>
				<path class="st1" d="M77.68,12.76L65.4,10.23l-12.28,2.52l-8.1,12.76v2.26c0,0.9,0.03,1.8,0.1,2.7v0.01
					c0.31,3.89,1.27,7.68,2.83,11.23l0.96,5.27l1.57,8.64v0.01l1.7,9.4l-1.23,5.53v0.01l-0.9,4.06c0,0,0.19,8.75,15.34,8.75
					c15.15,0,15.34-8.75,15.34-8.75l-0.9-4.07v-0.01l-1.36-6.11l1.7-9.03l1.54-8.2l0.96-5.13c1.66-3.65,2.68-7.57,2.99-11.6
					c0.07-0.9,0.11-1.8,0.11-2.7v-2.26L77.68,12.76z M70.67,31.92l-5.28,4.07l-5.28-4.07l-1.27-7.96l6.55-5.92l6.55,5.92
					L70.67,31.92z"/>
			</g>
			<polygon class="st0" points="62.12,25.49 62.76,29.47 65.4,31.5 68.03,29.47 68.67,25.49 65.4,22.53 			"/>
			<polygon class="st0" points="63.21,42.79 63.63,45.44 65.4,46.8 67.16,45.44 67.58,42.79 65.4,40.81 			"/>
		</g>
	</g>
</g>
</svg>
