<?xml version="1.0" encoding="utf-8"?>
<!-- Generator: Adobe Illustrator 27.0.0, SVG Export Plug-In . SVG Version: 6.00 Build 0)  -->
<svg version="1.1" id="Calque_1" xmlns="http://www.w3.org/2000/svg" xmlns:xlink="http://www.w3.org/1999/xlink" x="0px" y="0px"
	 viewBox="0 0 705.3 111.84" style="enable-background:new 0 0 705.3 111.84;" xml:space="preserve">
<style type="text/css">
	.st0{fill:url(#SVGID_1_);}
	.st1{fill:#000B30;}
	.st2{fill:url(#SVGID_00000034067367802828492160000002813646126096960674_);}
	.st3{fill:url(#SVGID_00000122717141218469077500000004717452621336009863_);}
	.st4{fill:#5FD3F2;}
</style>
<g>
	
		<linearGradient id="SVGID_1_" gradientUnits="userSpaceOnUse" x1="107.5" y1="-111.3002" x2="362.8" y2="-111.3002" gradientTransform="matrix(1 0 0 -1 0 -55.2002)">
		<stop  offset="0.3218" style="stop-color:#000B30"/>
		<stop  offset="0.4083" style="stop-color:#021034;stop-opacity:0.9362"/>
		<stop  offset="0.5043" style="stop-color:#091D41;stop-opacity:0.8655"/>
		<stop  offset="0.6048" style="stop-color:#133357;stop-opacity:0.7913"/>
		<stop  offset="0.7085" style="stop-color:#225275;stop-opacity:0.7149"/>
		<stop  offset="0.8146" style="stop-color:#357A9C;stop-opacity:0.6367"/>
		<stop  offset="0.9212" style="stop-color:#4CAACB;stop-opacity:0.5581"/>
		<stop  offset="1" style="stop-color:#5FD3F2;stop-opacity:0.5"/>
		<stop  offset="1" style="stop-color:#7EDAF2;stop-opacity:0.5228"/>
		<stop  offset="1" style="stop-color:#9DE1F3;stop-opacity:0.5517"/>
		<stop  offset="1" style="stop-color:#B9E7F3;stop-opacity:0.5843"/>
		<stop  offset="1" style="stop-color:#CFECF3;stop-opacity:0.6213"/>
		<stop  offset="1" style="stop-color:#E0EFF4;stop-opacity:0.6644"/>
		<stop  offset="1" style="stop-color:#EBF2F4;stop-opacity:0.7177"/>
		<stop  offset="1" style="stop-color:#F2F4F4;stop-opacity:0.7924"/>
		<stop  offset="1" style="stop-color:#F4F4F4"/>
	</linearGradient>
	<path class="st0" d="M139.6,64.6c-10.4,0-15.6-4.1-15.6-12.2c0-2.1,0.4-4.5,1.1-7.1l6.7-25C135.2,7.4,144.7,1,160.2,1h202.6
		l-5.3,20.7H170.8l-4.4,16.4c-0.2,0.9-0.4,1.6-0.4,2.2c0,2.3,1.4,3.5,4.1,3.5h46.6c10.4,0,15.6,4.1,15.6,12.2c0,2.1-0.4,4.5-1.1,7.1
		l-7.7,28.7c-3.4,12.9-11.7,19.4-24.8,19.4h-91.2l5.5-20.7h71.5l5.4-20.1c0.2-0.9,0.4-1.6,0.4-2.2c0-2.3-1.4-3.5-4.1-3.5h-46.6V64.6
		z"/>
	<path class="st1" d="M91.5,1c12.8,0,19.7,7.5,20.7,22.5l5.7,87.7H78.5l-1.1-17.9l0,0L76,72.6l0,0L74.6,51l-36.2,60.2H-1L65.2,1.1
		h26.3V1z"/>
	
		<linearGradient id="SVGID_00000153692451542694312720000003996462002318397849_" gradientUnits="userSpaceOnUse" x1="241.2" y1="-112.7502" x2="351" y2="-112.7502" gradientTransform="matrix(1 0 0 -1 0 -55.2002)">
		<stop  offset="0.3218" style="stop-color:#000B30"/>
		<stop  offset="0.4083" style="stop-color:#021034;stop-opacity:0.9362"/>
		<stop  offset="0.5043" style="stop-color:#091D41;stop-opacity:0.8655"/>
		<stop  offset="0.6048" style="stop-color:#133357;stop-opacity:0.7913"/>
		<stop  offset="0.7085" style="stop-color:#225275;stop-opacity:0.7149"/>
		<stop  offset="0.8146" style="stop-color:#357A9C;stop-opacity:0.6367"/>
		<stop  offset="0.9212" style="stop-color:#4CAACB;stop-opacity:0.5581"/>
		<stop  offset="1" style="stop-color:#5FD3F2;stop-opacity:0.5"/>
		<stop  offset="1" style="stop-color:#7EDAF2;stop-opacity:0.5228"/>
		<stop  offset="1" style="stop-color:#9DE1F3;stop-opacity:0.5517"/>
		<stop  offset="1" style="stop-color:#B9E7F3;stop-opacity:0.5843"/>
		<stop  offset="1" style="stop-color:#CFECF3;stop-opacity:0.6213"/>
		<stop  offset="1" style="stop-color:#E0EFF4;stop-opacity:0.6644"/>
		<stop  offset="1" style="stop-color:#EBF2F4;stop-opacity:0.7177"/>
		<stop  offset="1" style="stop-color:#F2F4F4;stop-opacity:0.7924"/>
		<stop  offset="1" style="stop-color:#F4F4F4"/>
	</linearGradient>
	<path style="fill:url(#SVGID_00000153692451542694312720000003996462002318397849_);" d="M248,47.2l-6.8,20.7h104.2l5.6-20.7H248z"
		/>
	
		<linearGradient id="SVGID_00000124143387173070252360000007345061491277064364_" gradientUnits="userSpaceOnUse" x1="227.7974" y1="-156.5724" x2="340.2" y2="-156.5724" gradientTransform="matrix(1 0 0 -1 0 -55.2002)">
		<stop  offset="0.3218" style="stop-color:#000B30"/>
		<stop  offset="0.4083" style="stop-color:#021034;stop-opacity:0.9362"/>
		<stop  offset="0.5043" style="stop-color:#091D41;stop-opacity:0.8655"/>
		<stop  offset="0.6048" style="stop-color:#133357;stop-opacity:0.7913"/>
		<stop  offset="0.7085" style="stop-color:#225275;stop-opacity:0.7149"/>
		<stop  offset="0.8146" style="stop-color:#357A9C;stop-opacity:0.6367"/>
		<stop  offset="0.9212" style="stop-color:#4CAACB;stop-opacity:0.5581"/>
		<stop  offset="1" style="stop-color:#5FD3F2;stop-opacity:0.5"/>
		<stop  offset="1" style="stop-color:#7EDAF2;stop-opacity:0.5228"/>
		<stop  offset="1" style="stop-color:#9DE1F3;stop-opacity:0.5517"/>
		<stop  offset="1" style="stop-color:#B9E7F3;stop-opacity:0.5843"/>
		<stop  offset="1" style="stop-color:#CFECF3;stop-opacity:0.6213"/>
		<stop  offset="1" style="stop-color:#E0EFF4;stop-opacity:0.6644"/>
		<stop  offset="1" style="stop-color:#EBF2F4;stop-opacity:0.7177"/>
		<stop  offset="1" style="stop-color:#F2F4F4;stop-opacity:0.7924"/>
		<stop  offset="1" style="stop-color:#F4F4F4"/>
	</linearGradient>
	<path style="fill:url(#SVGID_00000124143387173070252360000007345061491277064364_);" d="M340.2,91.2l-110.5-1.3
		c0,0-8.4,20.2,10.1,22.1s94.8,0,94.8,0L340.2,91.2z"/>
	<path class="st4" d="M420,21.1l-3.3-5.3h-14.6l-3.3,5.3h-2.9l11.8-18.4h3.4L423,21.1H420z M403.5,13.8h11.9l-5.7-9.1h-0.5
		L403.5,13.8z"/>
	<path class="st1" d="M432,19.7c-1.7-1.5-2.6-4-2.6-7.5V2.7h2.4v10c0,2,0.4,3.5,1.2,4.6c0.4,0.5,0.8,0.9,1.3,1.3
		c0.5,0.3,1.1,0.6,1.7,0.8c0.7,0.2,1.3,0.3,2,0.4c0.6,0.1,1.4,0.1,2.2,0.1c1.9,0,3.4-0.2,4.8-0.9c0.7-0.3,1.3-0.7,1.8-1.3
		c1-1,1.6-2.7,1.6-4.9v-10h2.4v9.5c0,3.4-0.9,5.9-2.6,7.4c-1.8,1.5-4.4,2.3-8.1,2.3C436.4,21.9,433.7,21.1,432,19.7z"/>
	<path class="st1" d="M481.4,2.7v2.1h-10.6v16.3h-2.6V4.8h-10.7V2.7H481.4z"/>
	<path class="st1" d="M499.5,21.9c-3.9,0-7.1-0.9-9.6-2.8s-3.7-4.3-3.7-7.2c0-2.9,1.2-5.3,3.7-7.2c2.5-1.9,5.7-2.8,9.6-2.8
		c3.9,0,7.1,0.9,9.6,2.8s3.7,4.3,3.7,7.2c0,2.9-1.2,5.3-3.7,7.2C506.6,21,503.4,21.9,499.5,21.9z M504.7,18.8c1.7-0.7,3-1.6,3.9-2.8
		c1-1.2,1.4-2.6,1.4-4.1c0-2.3-0.9-4.2-2.8-5.7c-1.9-1.5-4.3-2.2-7.3-2.2c-2,0-3.9,0.3-5.5,1c-1.7,0.7-3,1.6-3.9,2.8
		c-1,1.2-1.4,2.6-1.4,4.1c0,2.3,0.9,4.2,2.8,5.7c1.8,1.5,4.3,2.2,7.3,2.2C501.2,19.8,503,19.5,504.7,18.8z"/>
	<path class="st1" d="M520.2,21.1V2.7h2.5l18.5,15.4V2.7h2.4v18.4h-2.4l-18.6-15v15H520.2z"/>
	<path class="st1" d="M564.3,21.9c-3.9,0-7.1-0.9-9.6-2.8s-3.7-4.3-3.7-7.2c0-2.9,1.2-5.3,3.7-7.2c2.5-1.9,5.7-2.8,9.6-2.8
		s7.1,0.9,9.6,2.8s3.7,4.3,3.7,7.2c0,2.9-1.2,5.3-3.7,7.2C571.4,21,568.2,21.9,564.3,21.9z M569.4,18.8c1.7-0.7,3-1.6,3.9-2.8
		c1-1.2,1.4-2.6,1.4-4.1c0-2.3-0.9-4.2-2.8-5.7C570,4.7,567.6,4,564.6,4c-2,0-3.9,0.3-5.5,1c-1.7,0.7-3,1.6-3.9,2.8
		c-1,1.2-1.4,2.6-1.4,4.1c0,2.3,0.9,4.2,2.8,5.7c1.8,1.5,4.3,2.2,7.3,2.2C565.9,19.8,567.7,19.5,569.4,18.8z"/>
	<path class="st1" d="M584.9,21.1V2.7h2.5l10.9,16.4h0.5l10.9-16.4h2.6v18.4H610V7.4l-9.7,13.7H597l-9.7-13.7v13.7H584.9z"/>
	<path class="st1" d="M633.7,21.9c-3.9,0-7.1-0.9-9.6-2.8s-3.7-4.3-3.7-7.2c0-2.9,1.2-5.3,3.7-7.2c2.5-1.9,5.7-2.8,9.6-2.8
		c3.9,0,7.1,0.9,9.6,2.8S647,9,647,11.9c0,2.9-1.2,5.3-3.7,7.2C640.8,21,637.6,21.9,633.7,21.9z M638.8,18.8c1.7-0.7,3-1.6,3.9-2.8
		c1-1.2,1.4-2.6,1.4-4.1c0-2.3-0.9-4.2-2.8-5.7C639.4,4.7,637,4,634,4c-2,0-3.9,0.3-5.5,1c-1.7,0.7-3,1.6-3.9,2.8
		c-1,1.2-1.4,2.6-1.4,4.1c0,2.3,0.9,4.2,2.8,5.7c1.8,1.5,4.3,2.2,7.3,2.2C635.3,19.8,637.1,19.5,638.8,18.8z"/>
	<path class="st1" d="M656.7,19.7c-1.7-1.5-2.6-4-2.6-7.5V2.7h2.4v10c0,2,0.4,3.5,1.2,4.6c0.4,0.5,0.8,0.9,1.3,1.3
		c0.5,0.3,1.1,0.6,1.7,0.8c0.7,0.2,1.3,0.3,2,0.4c0.6,0.1,1.4,0.1,2.2,0.1c1.9,0,3.4-0.2,4.8-0.9c0.7-0.3,1.3-0.7,1.8-1.3
		c1-1,1.6-2.7,1.6-4.9v-10h2.4v9.5c0,3.4-0.9,5.9-2.6,7.4c-1.8,1.5-4.4,2.3-8.1,2.3C661.1,21.9,658.4,21.1,656.7,19.7z"/>
	<path class="st1" d="M687.1,21.1c-2-0.5-3.6-1.2-4.7-2.1l0.3-2.6c2.4,2.3,6.1,3.4,11.1,3.4c2.8,0,4.8-0.3,6-1s1.8-1.7,1.8-3.1
		c0-0.9-0.3-1.6-1-2c-0.7-0.5-1.6-0.8-2.7-0.9c-1.1-0.1-2.3-0.2-3.6-0.3c-1.3,0-2.7-0.1-4-0.2s-2.5-0.3-3.6-0.6
		c-1.1-0.3-2-0.8-2.7-1.6c-0.7-0.8-1-1.8-1-3c0-3.7,3.3-5.3,9.6-5.3c2.2,0,4.3,0.2,6.3,0.5c1.9,0.3,3.4,0.8,4.4,1.5v3.3h-0.6
		C702.2,6,701,5.2,699,4.7s-4.1-0.8-6.4-0.8c-2.5,0-4.3,0.2-5.3,0.7c-1.1,0.5-1.6,1.3-1.6,2.3c0,0.8,0.3,1.5,1,2s1.6,0.8,2.7,0.9
		s2.3,0.2,3.6,0.3c1.3,0.1,2.7,0.1,4,0.2s2.5,0.3,3.6,0.6c1.1,0.3,2,0.8,2.7,1.6c0.7,0.8,1,1.7,1,2.9c0,2.3-0.9,3.9-2.6,4.8
		c-1.8,1-4.4,1.5-7.9,1.5C691.4,21.9,689.2,21.7,687.1,21.1z"/>
	<path class="st4" d="M402,64.3c-2-0.5-3.6-1.2-4.7-2.1l0.3-2.6c2.4,2.3,6.1,3.4,11.1,3.4c2.8,0,4.8-0.3,6-1s1.8-1.7,1.8-3.1
		c0-0.9-0.3-1.6-1-2c-0.7-0.5-1.6-0.8-2.7-0.9c-1.1-0.1-2.3-0.2-3.6-0.3c-1.3,0-2.7-0.1-4-0.2c-1.3-0.1-2.5-0.3-3.6-0.6
		s-2-0.8-2.7-1.6s-1-1.8-1-3c0-3.7,3.3-5.3,9.6-5.3c2.2,0,4.3,0.2,6.3,0.5c1.9,0.3,3.4,0.8,4.4,1.5v3.3h-0.6
		c-0.5-1.1-1.7-1.9-3.7-2.4s-4.1-0.8-6.4-0.8c-2.5,0-4.3,0.2-5.3,0.7c-1.1,0.5-1.6,1.3-1.6,2.3c0,0.8,0.3,1.5,1,2s1.6,0.8,2.7,0.9
		c1.1,0.1,2.3,0.2,3.6,0.3s2.7,0.1,4,0.2c1.3,0.1,2.5,0.3,3.6,0.6s2,0.8,2.7,1.6s1,1.7,1,2.9c0,2.3-0.9,3.9-2.6,4.8
		c-1.8,1-4.4,1.5-7.9,1.5C406.3,65.1,404,64.9,402,64.3z"/>
	<path class="st1" d="M451.8,45.9l-11.9,10.5v7.9h-2.4v-7.9l-11.9-10.5h3.6l9.5,8.7l9.5-8.7H451.8z"/>
	<path class="st1" d="M461.2,64.3c-2-0.5-3.6-1.2-4.7-2.1l0.3-2.6c2.4,2.3,6.1,3.4,11.1,3.4c2.8,0,4.8-0.3,6-1s1.8-1.7,1.8-3.1
		c0-0.9-0.3-1.6-1-2c-0.7-0.5-1.6-0.8-2.7-0.9c-1.1-0.1-2.3-0.2-3.6-0.3c-1.3,0-2.7-0.1-4-0.2c-1.3-0.1-2.5-0.3-3.6-0.6
		s-2-0.8-2.7-1.6s-1-1.8-1-3c0-3.7,3.3-5.3,9.6-5.3c2.2,0,4.3,0.2,6.3,0.5c1.9,0.3,3.4,0.8,4.4,1.5v3.3h-0.6
		c-0.5-1.1-1.7-1.9-3.7-2.4s-4.1-0.8-6.4-0.8c-2.5,0-4.3,0.2-5.3,0.7c-1.1,0.5-1.6,1.3-1.6,2.3c0,0.8,0.3,1.5,1,2s1.6,0.8,2.7,0.9
		c1.1,0.1,2.3,0.2,3.6,0.3s2.7,0.1,4,0.2c1.3,0.1,2.5,0.3,3.6,0.6s2,0.8,2.7,1.6s1,1.7,1,2.9c0,2.3-0.9,3.9-2.6,4.8
		c-1.8,1-4.4,1.5-7.9,1.5C465.4,65.1,463.2,64.9,461.2,64.3z"/>
	<path class="st1" d="M508.6,45.9V48H498v16.3h-2.6V48h-10.7v-2.1H508.6z"/>
	<path class="st1" d="M515.9,64.4V46h20.4v2.1h-18v5.5h15.2v2.1h-15.2v6.6h18v2.1L515.9,64.4L515.9,64.4z"/>
	<path class="st1" d="M544.2,64.4V46h2.5l10.9,16.4h0.5L569,46h2.6v18.4h-2.4V50.7l-9.7,13.7h-3.4l-9.7-13.7v13.7H544.2z"/>
	<path class="st1" d="M585.1,64.3c-2-0.5-3.6-1.2-4.7-2.1l0.3-2.6c2.4,2.3,6.1,3.4,11.1,3.4c2.8,0,4.8-0.3,6-1s1.8-1.7,1.8-3.1
		c0-0.9-0.3-1.6-1-2c-0.7-0.5-1.6-0.8-2.7-0.9c-1.1-0.1-2.3-0.2-3.6-0.3c-1.3,0-2.7-0.1-4-0.2c-1.3-0.1-2.5-0.3-3.6-0.6
		s-2-0.8-2.7-1.6s-1-1.8-1-3c0-3.7,3.3-5.3,9.6-5.3c2.2,0,4.3,0.2,6.3,0.5c1.9,0.3,3.4,0.8,4.4,1.5v3.3h-0.6
		c-0.5-1.1-1.7-1.9-3.7-2.4s-4.1-0.8-6.4-0.8c-2.5,0-4.3,0.2-5.3,0.7c-1.1,0.5-1.6,1.3-1.6,2.3c0,0.8,0.3,1.5,1,2s1.6,0.8,2.7,0.9
		c1.1,0.1,2.3,0.2,3.6,0.3s2.7,0.1,4,0.2c1.3,0.1,2.5,0.3,3.6,0.6s2,0.8,2.7,1.6s1,1.7,1,2.9c0,2.3-0.9,3.9-2.6,4.8
		c-1.8,1-4.4,1.5-7.9,1.5C589.3,65.1,587.1,64.9,585.1,64.3z"/>
	<path class="st4" d="M398.6,107.6V89.2H419v2.1h-18v5.5h15.2v2.1H401v6.6h18v2.1L398.6,107.6L398.6,107.6z"/>
	<path class="st1" d="M426.8,107.6V89.2h2.5l18.5,15.4V89.2h2.4v18.4h-2.4l-18.6-15v15H426.8z"/>
	<path class="st1" d="M464.4,107.1c-2.2-0.9-3.8-2.1-5-3.6s-1.8-3.2-1.8-5.1c0-1.9,0.6-3.6,1.8-5.1s2.9-2.7,5-3.6
		c2.2-0.9,4.6-1.3,7.3-1.3c4.3,0,7.6,0.7,9.9,2v3.5H481c-0.6-1.2-1.8-2.1-3.5-2.6c-1.8-0.5-3.7-0.8-5.8-0.8s-4.1,0.3-5.8,1
		s-3.1,1.6-4.1,2.8s-1.5,2.5-1.5,4s0.5,2.8,1.5,4s2.3,2.2,4.1,2.9s3.7,1,5.8,1c3,0,5.6-0.6,7.8-1.7v-5.6h-12.4v-2.1h14.5l0.4,9.7
		c-2.7,1.3-6.2,1.9-10.3,1.9C469,108.4,466.6,107.9,464.4,107.1z"/>
	<path class="st1" d="M491.4,107.6V89.2h2.4v18.4H491.4z"/>
	<path class="st1" d="M503.1,107.6V89.2h2.5l18.5,15.4V89.2h2.4v18.4h-2.4l-18.6-15v15H503.1z"/>
	<path class="st1" d="M535.9,107.6V89.2h20.4v2.1h-18v5.5h15.2v2.1h-15.2v6.6h18v2.1L535.9,107.6L535.9,107.6z"/>
	<path class="st1" d="M564.7,107.6V89.2h20.4v2.1h-18v5.5h15.2v2.1h-15.2v6.6h18v2.1L564.7,107.6L564.7,107.6z"/>
	<path class="st1" d="M614.4,107.6h-2.8l-6.9-8.4h-8.8v8.4h-2.4V89.2h14c1.8,0,3.3,0.4,4.5,1.4c1.2,0.9,1.8,2.1,1.8,3.7
		c0,1.7-0.6,3-1.7,3.8c-1.2,0.8-2.7,1.2-4.6,1.2h-0.1L614.4,107.6z M596,91.2v6.1h11.7c1.2,0,2.1-0.2,2.7-0.7c0.6-0.5,1-1.3,1-2.5
		c0-1-0.3-1.7-1-2.2s-1.6-0.7-2.7-0.7L596,91.2L596,91.2z"/>
	<path class="st1" d="M621.6,107.6V89.2h2.4v18.4H621.6z"/>
	<path class="st1" d="M633.4,107.6V89.2h2.5l18.5,15.4V89.2h2.4v18.4h-2.4l-18.6-15v15H633.4z"/>
	<path class="st1" d="M671,107.1c-2.2-0.9-3.8-2.1-5-3.6s-1.8-3.2-1.8-5.1c0-1.9,0.6-3.6,1.8-5.1s2.9-2.7,5-3.6
		c2.2-0.9,4.6-1.3,7.3-1.3c4.3,0,7.6,0.7,9.9,2v3.5h-0.6c-0.6-1.2-1.8-2.1-3.5-2.6c-1.8-0.5-3.7-0.8-5.8-0.8s-4.1,0.3-5.8,1
		s-3.1,1.6-4.1,2.8s-1.5,2.5-1.5,4s0.5,2.8,1.5,4s2.3,2.2,4.1,2.9s3.7,1,5.8,1c3,0,5.6-0.6,7.8-1.7v-5.6h-12.4v-2.1h14.5l0.4,9.7
		c-2.7,1.3-6.2,1.9-10.3,1.9C675.6,108.4,673.2,107.9,671,107.1z"/>
</g>
</svg>
