<?xml version="1.0" encoding="utf-8"?>
<!-- Generator: Adobe Illustrator 27.0.0, SVG Export Plug-In . SVG Version: 6.00 Build 0)  -->
<svg version="1.1" id="Layer_1" xmlns="http://www.w3.org/2000/svg" xmlns:xlink="http://www.w3.org/1999/xlink" x="0px" y="0px"
	 viewBox="0 0 130.79 102.54" style="enable-background:new 0 0 130.79 102.54;" xml:space="preserve">
<style type="text/css">
	.st0{fill:#000b30;}
	.st1{fill:#000b30;}
	.st2{fill:#3576AB;}
	.st3{fill:#5fd3f2;}
	.st4{fill:#5fd3f2;}
	.st5{fill:#000b30;}
	.st6{fill:#000b30;}
	.st7{fill:#5fd3f2;}
	.st8{fill:#5fd3f2;}
	.st9{fill:#000b30;}
	.st10{fill:#939598;}
	.st11{fill:#BCBEC0;}
	.st12{fill:#535359;}
	.st13{fill:#FFFFFF;}
</style>
<g id="BACKGROUND">
</g>
<g>
	<g>
		<path class="st0" d="M103.55,73.05L71.1,90.99c-1.39,0.77-2.52,0.15-2.52-1.39V30.48c0-1.54,1.13-3.41,2.52-4.18l32.45-17.93
			c1.39-0.77,2.52-0.14,2.52,1.4v59.11C106.08,70.41,104.95,72.29,103.55,73.05L103.55,73.05z"/>
		<path class="st1" d="M69.32,91.15c-0.46-0.25-0.74-0.79-0.74-1.56V30.48c0-1.54,1.13-3.41,2.52-4.18l32.45-17.94
			c0.68-0.37,1.3-0.41,1.75-0.18l-14.47-8v0c-0.46-0.28-1.1-0.25-1.82,0.15L56.56,18.26c-1.39,0.77-2.52,2.65-2.52,4.19v59.11
			c0,0.77,0.28,1.31,0.74,1.56L69.32,91.15z"/>
		<path class="st1" d="M103.52,14.57v40.22c0,0.98-0.72,2.17-1.6,2.66L72.73,73.58c-0.89,0.49-1.6,0.09-1.6-0.89V72.5
			c0.02-0.01,0.05-0.02,0.08-0.04l29.18-16.13c0.89-0.49,1.61-1.68,1.61-2.66V13.64C102.85,13.21,103.52,13.61,103.52,14.57
			L103.52,14.57z"/>
		<path class="st2" d="M102,13.64v40.03c0,0.98-0.72,2.18-1.61,2.66L71.21,72.47c-0.02,0.02-0.05,0.03-0.08,0.04V32.47
			c0-0.98,0.72-2.17,1.6-2.66l29.19-16.13C101.94,13.66,101.98,13.65,102,13.64L102,13.64z"/>
		<path class="st3" d="M72.6,86.77c-0.24-0.15-0.39-0.43-0.39-0.84v-6.14c0-0.84,0.62-1.87,1.39-2.29l6.83-3.78
			c0.36-0.2,0.69-0.22,0.94-0.11l-1.04-0.58c-0.25-0.15-0.6-0.13-0.98,0.08l-6.84,3.78c-0.76,0.42-1.39,1.45-1.39,2.29v6.14
			c0,0.38,0.13,0.65,0.34,0.8v0.01L72.6,86.77z"/>
		<path class="st4" d="M80.44,82.92l-6.83,3.77c-0.76,0.43-1.38,0.08-1.38-0.77v-6.14c0-0.85,0.62-1.87,1.38-2.3l6.83-3.78
			c0.77-0.42,1.39-0.08,1.39,0.77v6.14C81.82,81.47,81.2,82.49,80.44,82.92L80.44,82.92z"/>
		<path class="st1" d="M103.53,61.3v6.15c0,0.84-0.63,1.86-1.39,2.29L83.9,79.81c-0.58,0.32-1.08,0.21-1.28-0.25
			c0.11-0.02,0.22-0.07,0.34-0.14l18.23-10.07c0.76-0.43,1.38-1.45,1.38-2.29v-6.15c0-0.19-0.03-0.37-0.1-0.51
			C103.08,60.23,103.53,60.58,103.53,61.3L103.53,61.3z"/>
		<path class="st5" d="M102.58,60.92v6.15c0,0.84-0.62,1.86-1.38,2.29L82.97,79.42c-0.12,0.07-0.23,0.12-0.34,0.14
			c-0.07-0.14-0.1-0.31-0.1-0.51V72.9c0-0.84,0.62-1.86,1.38-2.29l18.23-10.07c0.12-0.07,0.23-0.12,0.34-0.14
			C102.55,60.54,102.58,60.72,102.58,60.92L102.58,60.92z"/>
		<path class="st6" d="M99.03,26.51c-0.32-0.05-0.83-0.04-1.43,0.29c-0.76,0.42-1.4,1.21-1.8,2.23l-1.63,5.41l0.88-7.39
			c0.71-3.54-0.16-4.17-1.06-4.06c-0.06,0.01-0.41,0.08-0.88,0.34c-0.96,0.54-1.74,1.46-2.19,2.61l-0.07,0.18l-1.23,9.93l0.4-10.27
			c0.08-1-0.25-1.43-0.53-1.62c-0.7-0.46-1.8,0.12-1.93,0.19c-0.75,0.42-2.24,1.79-2.47,3.98l-0.54,12.87l-1.43-8.8
			c-0.04-1.43-1.13-2-2.47-1.27l-0.09,0.06c-0.89,0.6-2.54,2.24-2.39,4.14l1.86,16.45c-0.01,0.07-0.02,0.17-0.04,0.3l-1.26-1
			c-0.95-0.85-1.89-1-2.86-0.46c-0.6,0.33-1.17,0.91-1.68,1.68c-0.56,0.83-0.85,1.67-0.86,2.44c-0.01,1.73,1.5,2.54,1.9,2.73
			c1.89,2.04,5.04,5.36,5.98,5.66l0,0c1.19,0.41,2.41-0.15,3.23-0.6c0.55-0.31,1.1-0.67,1.67-1.05c0.58-0.38,1.18-0.78,1.79-1.13
			c0.48-0.26,0.95-0.5,1.41-0.73c0.46-0.24,0.92-0.46,1.35-0.7c1.32-0.73,2.8-1.73,3.75-3.68c0.72-1.46,1.3-3.28,1.61-4.49
			c0.22-0.87,0.64-7.2,0.82-10l2.81-11.61C99.9,28.01,99.88,26.63,99.03,26.51L99.03,26.51z"/>
		<path class="st7" d="M98.61,27.48c-0.66-0.09-1.59,0.25-2.11,1.6l-2.85,9.5l-0.74,0.24l1.37-11.5c0.45-2.24,0.29-3.45-0.53-3.36
			c0,0-1.45,0.28-2.13,2.03l-1.74,14.06l-1.21,0.52l0.56-14.41c0.14-1.92-1.67-0.91-1.67-0.91s-1.48,0.82-1.69,2.78l-0.6,14.22
			c-0.05,0.16-1.28,0.97-1.28,0.97l-1.67-10.27c-0.01-1.01-0.75-1.42-1.67-0.91c0,0-1.82,1.23-1.69,2.78l1.87,16.56
			c0,0-0.14,1.06-0.35,2.49l-2.38-1.89c-1.24-1.11-2.37-0.83-3.39,0.73c-1.79,2.66,1.13,3.87,1.13,3.87s5.11,5.55,5.87,5.62
			c1.86,0.63,3.82-1.38,6.2-2.7c2.38-1.31,4.71-2.02,5.88-4.4c0.63-1.3,1.19-3,1.49-4.17c0.22-0.86,0.79-9.87,0.79-9.87l2.83-11.67
			C99.1,28.36,99,27.53,98.61,27.48L98.61,27.48z"/>
		<path class="st8" d="M82.11,33.32c0,0.89-0.65,1.96-1.46,2.41c-0.8,0.44-1.45,0.08-1.45-0.81c0-0.89,0.65-1.96,1.45-2.41
			C81.45,32.07,82.11,32.44,82.11,33.32z"/>
		<path class="st8" d="M77.63,52.87c0,0.89-0.65,1.96-1.45,2.41c-0.8,0.44-1.45,0.08-1.45-0.8c0-0.89,0.65-1.97,1.45-2.41
			C76.98,51.62,77.63,51.98,77.63,52.87z"/>
		<path class="st8" d="M89.06,26.51c0,0.88-0.65,1.96-1.45,2.41c-0.8,0.44-1.45,0.08-1.45-0.81s0.65-1.97,1.45-2.41
			C88.42,25.26,89.07,25.61,89.06,26.51z"/>
		<path class="st8" d="M94.36,25.34c0,0.76-0.56,1.67-1.24,2.06c-0.69,0.38-1.24,0.07-1.24-0.69c0-0.76,0.56-1.68,1.24-2.06
			C93.8,24.27,94.36,24.58,94.36,25.34z"/>
		<path class="st8" d="M98.65,28.69c0,0.59-0.43,1.29-0.96,1.59c-0.53,0.29-0.96,0.05-0.96-0.53c0-0.58,0.43-1.29,0.96-1.58
			C98.22,27.87,98.65,28.11,98.65,28.69z"/>
		<path class="st9" d="M102,24.02v-0.27L91.41,29.6V19.48l-0.25,0.14v10.12l-10.01,5.52V25.15l-0.25,0.14V35.4l-9.78,5.4v0.28
			l9.78-5.4v10.67l-9.78,5.4v0.27l9.78-5.4V57.3l-9.78,5.4v0.27l9.78-5.4v9.53l0.25-0.14v-9.53l10.01-5.53v9.53l0.25-0.13v-9.53
			L102,45.92v-0.28L91.41,51.5V40.81L102,34.96v-0.27l-10.59,5.85V29.88L102,24.02z M91.16,51.63l-10.01,5.53V46.48l10.01-5.53
			V51.63z M91.16,40.67L81.15,46.2V35.54l10.01-5.53V40.67z"/>
	</g>
	<g>
		<path class="st1" d="M54.03,31.01l-31.12,17.2c-1.02,0.56-1.84,1.93-1.84,3.06v46.44c0,0.53,0.19,0.91,0.49,1.11l6.56,3.63
			l1.31-7.32l24.61-13.6V39.6l6.46-5.02L54.03,31.01z"/>
		<path class="st0" d="M29.37,102.3c-1.02,0.57-1.85,0.11-1.85-1.02V54.84c0-1.13,0.83-2.49,1.85-3.06l31.12-17.2V85.1L29.37,102.3z
			"/>
		<g>
			<path class="st10" d="M32.49,84.62c-0.14-0.08-0.22-0.25-0.22-0.48v-3.51c0-0.48,0.36-1.07,0.79-1.31l3.91-2.16
				c0.21-0.12,0.4-0.13,0.54-0.06l-0.59-0.34c-0.15-0.08-0.34-0.07-0.56,0.05l-3.91,2.16c-0.44,0.24-0.79,0.83-0.79,1.31v3.51
				c0,0.22,0.07,0.38,0.19,0.47l0,0L32.49,84.62z"/>
			<path class="st11" d="M36.97,82.42l-3.91,2.16c-0.43,0.24-0.79,0.05-0.79-0.44v-3.51c0-0.49,0.36-1.08,0.79-1.32l3.91-2.16
				c0.44-0.25,0.79-0.05,0.79,0.44v3.51C37.76,81.59,37.41,82.18,36.97,82.42L36.97,82.42z"/>
			<g>
				<path class="st12" d="M34.41,81.89l0.4-0.22v-1.18l-0.34,0.19v-0.29c0.2-0.15,0.33-0.28,0.46-0.44l0.31-0.18v1.66l0.35-0.19
					v0.38l-1.18,0.65V81.89z"/>
			</g>
		</g>
		<g>
			<path class="st10" d="M39,81.02c-0.14-0.08-0.22-0.24-0.22-0.48v-3.51c0-0.48,0.36-1.07,0.79-1.31l3.91-2.16
				c0.21-0.11,0.4-0.13,0.54-0.06l-0.6-0.34c-0.15-0.08-0.34-0.07-0.56,0.05l-3.91,2.16c-0.44,0.24-0.79,0.83-0.79,1.31v3.51
				c0,0.22,0.07,0.38,0.19,0.46l0,0L39,81.02z"/>
			<path class="st11" d="M43.49,78.82l-3.91,2.16c-0.44,0.24-0.79,0.05-0.79-0.44v-3.51c0-0.49,0.36-1.07,0.79-1.31l3.91-2.16
				c0.44-0.25,0.79-0.05,0.79,0.44v3.51C44.28,77.99,43.92,78.58,43.49,78.82L43.49,78.82z"/>
			<g>
				<path class="st12" d="M40.84,78.45c0.47-0.75,0.81-1.29,0.81-1.57c0-0.2-0.1-0.25-0.26-0.16c-0.13,0.07-0.24,0.23-0.33,0.39
					l-0.23-0.12c0.18-0.32,0.36-0.52,0.62-0.67c0.37-0.2,0.61-0.08,0.61,0.31c0,0.35-0.29,0.87-0.59,1.38
					c0.09-0.07,0.22-0.15,0.31-0.2l0.37-0.21V78l-1.3,0.72V78.45z"/>
			</g>
		</g>
		<g>
			<path class="st10" d="M52.11,73.77c-0.14-0.08-0.22-0.25-0.22-0.48v-3.51c0-0.48,0.36-1.07,0.79-1.31l3.91-2.16
				c0.21-0.11,0.4-0.12,0.54-0.06l-0.6-0.33c-0.14-0.09-0.34-0.08-0.56,0.04l-3.91,2.16c-0.44,0.25-0.79,0.83-0.79,1.31v3.51
				c0,0.22,0.07,0.37,0.19,0.46l0,0L52.11,73.77z"/>
			<path class="st11" d="M56.59,71.57l-3.91,2.16c-0.44,0.24-0.79,0.05-0.79-0.44v-3.51c0-0.48,0.36-1.07,0.79-1.31l3.91-2.16
				c0.44-0.24,0.79-0.04,0.79,0.44v3.51C57.38,70.73,57.02,71.32,56.59,71.57L56.59,71.57z"/>
			<g>
				<path class="st12" d="M53.94,70.44c0-0.7,0.27-1.2,0.66-1.41c0.4-0.22,0.66-0.01,0.66,0.68s-0.27,1.21-0.66,1.43
					C54.2,71.37,53.94,71.14,53.94,70.44z M54.86,69.94c0-0.56-0.11-0.62-0.26-0.54c-0.14,0.08-0.25,0.27-0.25,0.82
					c0,0.56,0.11,0.64,0.25,0.56C54.74,70.7,54.86,70.49,54.86,69.94z"/>
			</g>
		</g>
		<g>
			<path class="st10" d="M52.11,80.25c-0.14-0.08-0.22-0.25-0.22-0.48v-3.51c0-0.49,0.36-1.07,0.79-1.31l3.91-2.16
				c0.21-0.12,0.4-0.13,0.54-0.06l-0.6-0.34c-0.14-0.08-0.34-0.07-0.56,0.05l-3.91,2.16c-0.44,0.24-0.79,0.83-0.79,1.32v3.51
				c0,0.22,0.07,0.38,0.19,0.46l0,0L52.11,80.25z"/>
			<path class="st11" d="M56.59,78.04l-3.91,2.16c-0.44,0.24-0.79,0.05-0.79-0.43v-3.51c0-0.49,0.36-1.08,0.79-1.32l3.91-2.16
				c0.44-0.25,0.79-0.05,0.79,0.44v3.51C57.38,77.21,57.02,77.8,56.59,78.04L56.59,78.04z"/>
			<g>
				<path class="st12" d="M53.74,77.02c0-0.7,0.42-1.33,0.9-1.6c0.24-0.14,0.44-0.12,0.57-0.04l-0.22,0.43
					c-0.1-0.04-0.2-0.06-0.34,0.02c-0.26,0.14-0.47,0.51-0.47,0.93c0,0.43,0.18,0.58,0.46,0.43c0.16-0.09,0.28-0.24,0.37-0.4
					l0.23,0.17c-0.16,0.29-0.37,0.51-0.61,0.65C54.14,77.88,53.74,77.73,53.74,77.02z"/>
			</g>
		</g>
		<g>
			<path class="st10" d="M52.11,86.72c-0.14-0.08-0.22-0.25-0.22-0.48v-3.51c0-0.48,0.36-1.07,0.79-1.31l3.91-2.16
				c0.21-0.12,0.4-0.13,0.54-0.06l-0.6-0.33c-0.14-0.09-0.34-0.08-0.56,0.05l-3.91,2.16c-0.44,0.24-0.79,0.83-0.79,1.32v3.51
				c0,0.22,0.07,0.37,0.19,0.46l0,0.01L52.11,86.72z"/>
			<path class="st11" d="M56.59,84.52l-3.91,2.16c-0.44,0.24-0.79,0.05-0.79-0.44v-3.51c0-0.48,0.36-1.07,0.79-1.32l3.91-2.16
				c0.44-0.24,0.79-0.05,0.79,0.43v3.52C57.38,83.69,57.02,84.27,56.59,84.52L56.59,84.52z"/>
			<polygon class="st12" points="55.44,81.33 55.44,82.43 54.1,83.17 54.1,82.45 52.89,84.21 54.1,84.64 54.1,83.92 56.12,82.81 
				56.12,80.95 			"/>
		</g>
		<g>
			<path class="st10" d="M45.53,77.42c-0.14-0.08-0.22-0.25-0.22-0.48v-3.51c0-0.49,0.35-1.07,0.79-1.31l3.91-2.16
				c0.21-0.12,0.39-0.13,0.53-0.06l-0.6-0.34c-0.14-0.08-0.34-0.07-0.56,0.05l-3.91,2.16c-0.44,0.24-0.79,0.83-0.79,1.31v3.51
				c0,0.22,0.07,0.38,0.19,0.46l0,0L45.53,77.42z"/>
			<path class="st11" d="M50.01,75.21l-3.91,2.16c-0.44,0.24-0.79,0.05-0.79-0.44v-3.51c0-0.49,0.35-1.07,0.79-1.31l3.91-2.16
				c0.44-0.24,0.79-0.05,0.79,0.44v3.51C50.8,74.38,50.45,74.97,50.01,75.21L50.01,75.21z"/>
			<g>
				<path class="st12" d="M47.32,74.89l0.2-0.41c0.11,0.06,0.24,0.07,0.4-0.02c0.18-0.1,0.3-0.25,0.3-0.41c0-0.18-0.1-0.24-0.5-0.02
					V73.7c0.33-0.18,0.44-0.35,0.44-0.51c0-0.14-0.08-0.18-0.22-0.1c-0.13,0.07-0.23,0.19-0.35,0.37l-0.21-0.17
					c0.17-0.25,0.35-0.45,0.58-0.58c0.38-0.21,0.64-0.15,0.64,0.21c0,0.21-0.11,0.42-0.31,0.62v0.02c0.21-0.05,0.37,0.03,0.37,0.29
					c0,0.38-0.31,0.77-0.69,0.97C47.66,74.99,47.45,74.98,47.32,74.89z"/>
			</g>
		</g>
		<g>
			<path class="st10" d="M32.49,91.14c-0.14-0.08-0.22-0.25-0.22-0.48v-3.51c0-0.48,0.36-1.07,0.79-1.31l3.91-2.16
				c0.21-0.12,0.4-0.13,0.54-0.06l-0.59-0.33c-0.15-0.08-0.34-0.07-0.56,0.05l-3.91,2.16c-0.44,0.24-0.79,0.83-0.79,1.31v3.51
				c0,0.22,0.07,0.38,0.19,0.46l0,0L32.49,91.14z"/>
			<path class="st11" d="M36.97,88.94l-3.91,2.16c-0.43,0.24-0.79,0.05-0.79-0.44v-3.51c0-0.48,0.36-1.07,0.79-1.31l3.91-2.16
				c0.44-0.25,0.79-0.05,0.79,0.43v3.51C37.76,88.1,37.41,88.69,36.97,88.94L36.97,88.94z"/>
			<g>
				<path class="st12" d="M35.06,87.87l-0.8,0.44v-0.33l0.68-1.6l0.52-0.29v1.19l0.21-0.12v0.36l-0.21,0.12v0.49l-0.4,0.22V87.87z
					 M35.06,87.51v-0.33c0-0.13,0.01-0.33,0.02-0.47l-0.01,0.01c-0.05,0.14-0.1,0.28-0.15,0.43l-0.24,0.58L35.06,87.51z"/>
			</g>
		</g>
		<g>
			<path class="st10" d="M39,87.49c-0.14-0.08-0.22-0.25-0.22-0.48V83.5c0-0.49,0.36-1.07,0.79-1.32l3.91-2.16
				c0.21-0.11,0.4-0.13,0.54-0.06l-0.6-0.34c-0.15-0.08-0.34-0.07-0.56,0.05l-3.91,2.16c-0.44,0.25-0.79,0.83-0.79,1.31v3.51
				c0,0.22,0.07,0.37,0.19,0.46l0,0.01L39,87.49z"/>
			<path class="st11" d="M43.49,85.29l-3.91,2.16c-0.44,0.24-0.79,0.05-0.79-0.44V83.5c0-0.49,0.36-1.07,0.79-1.32l3.91-2.16
				c0.44-0.24,0.79-0.05,0.79,0.44v3.51C44.28,84.46,43.92,85.05,43.49,85.29L43.49,85.29z"/>
			<g>
				<path class="st12" d="M40.8,84.94l0.19-0.41c0.11,0.05,0.24,0.07,0.4-0.02c0.19-0.1,0.31-0.28,0.31-0.49
					c0-0.21-0.12-0.25-0.29-0.15c-0.11,0.06-0.16,0.12-0.27,0.25l-0.19-0.03L41,83.04l1.05-0.58v0.4l-0.68,0.37l-0.03,0.4
					c0.07-0.07,0.13-0.12,0.21-0.16c0.32-0.18,0.59-0.13,0.59,0.31c0,0.45-0.32,0.89-0.68,1.09C41.15,85.04,40.94,85.02,40.8,84.94z
					"/>
			</g>
		</g>
		<g>
			<path class="st10" d="M45.53,83.89c-0.14-0.08-0.22-0.25-0.22-0.48V79.9c0-0.48,0.35-1.07,0.79-1.31l3.91-2.16
				c0.21-0.12,0.39-0.14,0.53-0.06l-0.6-0.33c-0.14-0.08-0.34-0.07-0.56,0.05l-3.91,2.16c-0.44,0.24-0.79,0.83-0.79,1.31v3.51
				c0,0.22,0.07,0.38,0.19,0.46l0,0.01L45.53,83.89z"/>
			<path class="st11" d="M50.01,81.69l-3.91,2.16c-0.44,0.25-0.79,0.04-0.79-0.44V79.9c0-0.48,0.35-1.07,0.79-1.31l3.91-2.16
				c0.44-0.25,0.79-0.05,0.79,0.43v3.51C50.8,80.86,50.45,81.45,50.01,81.69L50.01,81.69z"/>
			<g>
				<path class="st12" d="M47.37,80.58c0-0.76,0.36-1.3,0.75-1.52c0.24-0.13,0.42-0.12,0.54-0.05l-0.22,0.41
					c-0.06-0.05-0.18-0.05-0.29,0.01c-0.2,0.11-0.37,0.36-0.38,0.84c0.1-0.18,0.26-0.36,0.37-0.42c0.32-0.18,0.55-0.1,0.55,0.33
					c0,0.43-0.28,0.84-0.61,1.03C47.71,81.41,47.37,81.3,47.37,80.58z M48.29,80.4c0-0.22-0.1-0.24-0.24-0.16
					c-0.1,0.05-0.2,0.17-0.28,0.36c0.04,0.3,0.16,0.34,0.29,0.27C48.19,80.79,48.29,80.63,48.29,80.4z"/>
			</g>
		</g>
		<g>
			<path class="st10" d="M32.49,97.62c-0.14-0.08-0.22-0.25-0.22-0.48v-3.51c0-0.48,0.36-1.07,0.79-1.31l3.91-2.16
				c0.21-0.12,0.4-0.12,0.54-0.06l-0.59-0.33c-0.15-0.08-0.34-0.08-0.56,0.05l-3.91,2.16c-0.44,0.25-0.79,0.83-0.79,1.31v3.52
				c0,0.22,0.07,0.37,0.19,0.46v0.01L32.49,97.62z"/>
			<path class="st11" d="M36.97,95.42l-3.91,2.16c-0.43,0.24-0.79,0.04-0.79-0.44v-3.51c0-0.48,0.36-1.07,0.79-1.31l3.91-2.16
				c0.44-0.24,0.79-0.04,0.79,0.44v3.51C37.76,94.58,37.41,95.17,36.97,95.42L36.97,95.42z"/>
			<g>
				<path class="st12" d="M35.17,93.06l-0.83,0.46v-0.4l1.28-0.71v0.29c-0.43,0.81-0.49,1.22-0.52,2.04l-0.43,0.24
					C34.71,94.27,34.82,93.78,35.17,93.06z"/>
			</g>
		</g>
		<g>
			<path class="st10" d="M39,93.97c-0.14-0.08-0.22-0.25-0.22-0.48v-3.51c0-0.48,0.36-1.07,0.79-1.31l3.91-2.16
				c0.21-0.12,0.4-0.13,0.54-0.06l-0.6-0.34c-0.15-0.08-0.34-0.07-0.56,0.05l-3.91,2.16c-0.44,0.24-0.79,0.83-0.79,1.32v3.51
				c0,0.21,0.07,0.37,0.19,0.46h0L39,93.97z"/>
			<path class="st11" d="M43.49,91.77l-3.91,2.16c-0.44,0.24-0.79,0.05-0.79-0.44v-3.51c0-0.48,0.36-1.07,0.79-1.31l3.91-2.16
				c0.44-0.24,0.79-0.05,0.79,0.44v3.51C44.28,90.94,43.92,91.53,43.49,91.77L43.49,91.77z"/>
			<g>
				<path class="st12" d="M40.85,91.03c0-0.25,0.14-0.48,0.31-0.67v-0.01c-0.14-0.04-0.25-0.13-0.25-0.35c0-0.35,0.25-0.7,0.59-0.88
					c0.34-0.19,0.56-0.09,0.56,0.25c0,0.2-0.12,0.42-0.24,0.58v0.01c0.17,0.01,0.32,0.09,0.32,0.36c0,0.32-0.26,0.71-0.65,0.93
					C41.13,91.45,40.85,91.37,40.85,91.03z M41.75,90.51c0-0.18-0.16-0.16-0.39-0.14c-0.08,0.13-0.14,0.28-0.14,0.41
					c0,0.18,0.13,0.21,0.29,0.13C41.65,90.83,41.75,90.69,41.75,90.51z M41.73,89.59c0-0.16-0.08-0.22-0.22-0.14
					c-0.12,0.06-0.21,0.19-0.21,0.35c0,0.17,0.13,0.18,0.32,0.15C41.68,89.81,41.73,89.69,41.73,89.59z"/>
			</g>
		</g>
		<g>
			<path class="st10" d="M45.53,90.37c-0.14-0.08-0.22-0.25-0.22-0.48v-3.52c0-0.48,0.35-1.07,0.79-1.31l3.91-2.16
				c0.21-0.11,0.39-0.13,0.53-0.06l-0.6-0.33c-0.14-0.08-0.34-0.08-0.56,0.05l-3.91,2.16c-0.44,0.25-0.79,0.83-0.79,1.31v3.52
				c0,0.21,0.07,0.38,0.19,0.46l0,0L45.53,90.37z"/>
			<path class="st11" d="M50.01,88.17l-3.91,2.16c-0.44,0.25-0.79,0.05-0.79-0.43v-3.52c0-0.48,0.35-1.07,0.79-1.31l3.91-2.16
				c0.44-0.24,0.79-0.04,0.79,0.44v3.51C50.8,87.33,50.45,87.92,50.01,88.17L50.01,88.17z"/>
			<g>
				<path class="st12" d="M47.38,87.75l0.23-0.41c0.06,0.05,0.18,0.05,0.28-0.01c0.21-0.12,0.37-0.36,0.38-0.85
					c-0.1,0.19-0.26,0.36-0.37,0.42c-0.31,0.17-0.55,0.11-0.55-0.32c0-0.42,0.28-0.84,0.61-1.02c0.36-0.2,0.7-0.1,0.7,0.62
					c0,0.76-0.36,1.3-0.75,1.52C47.68,87.83,47.49,87.81,47.38,87.75z M48.26,86.16c-0.04-0.3-0.16-0.34-0.29-0.27
					c-0.12,0.07-0.23,0.23-0.23,0.46c0,0.21,0.1,0.24,0.24,0.16C48.08,86.46,48.19,86.35,48.26,86.16z"/>
			</g>
		</g>
		<polygon class="st1" points="56.53,62.55 31.64,76.3 31.64,56.12 56.53,42.37 		"/>
		<polygon class="st5" points="55.64,62.32 32.52,75.1 32.52,56.35 55.64,43.58 		"/>
		<path class="st13" d="M45.71,61.91v-1.12c0-0.99-0.73-1.4-1.63-0.9c-0.9,0.49-1.63,1.71-1.63,2.7v1.12l-0.43,0.24v3.26l4.12-2.28
			v-3.26L45.71,61.91z M42.89,62.35c0-0.73,0.53-1.61,1.19-1.97c0.66-0.36,1.19-0.07,1.19,0.66v1.12l-2.38,1.32V62.35z"/>
		<g>
			<path class="st13" d="M37.99,59.7l0.75-0.42v-2.2l-0.65,0.36v-0.54c0.38-0.29,0.61-0.53,0.86-0.82l0.59-0.32v3.1l0.65-0.36v0.71
				l-2.2,1.22V59.7z"/>
			<path class="st13" d="M40.68,58.42c0.88-1.4,1.5-2.4,1.5-2.94c0-0.37-0.19-0.48-0.49-0.31c-0.25,0.14-0.44,0.43-0.62,0.73
				l-0.43-0.23c0.34-0.59,0.66-0.97,1.16-1.25c0.68-0.38,1.14-0.15,1.14,0.58c0,0.64-0.55,1.63-1.1,2.59
				c0.18-0.12,0.41-0.28,0.58-0.36l0.7-0.39v0.74l-2.43,1.34V58.42z"/>
			<path class="st13" d="M43.69,54.84c0-0.32,0.21-0.67,0.49-0.83c0.28-0.15,0.48-0.03,0.48,0.29c0,0.31-0.21,0.67-0.48,0.82
				C43.89,55.28,43.69,55.15,43.69,54.84z M43.69,56.78c0-0.31,0.21-0.67,0.49-0.82c0.28-0.15,0.48-0.03,0.48,0.29
				c0,0.31-0.21,0.67-0.48,0.82C43.89,57.23,43.69,57.1,43.69,56.78z"/>
			<path class="st13" d="M46.59,54.75l-1.49,0.82v-0.61l1.26-2.99l0.98-0.54v2.23l0.4-0.22v0.67l-0.4,0.22v0.91l-0.74,0.41V54.75z
				 M46.59,54.08v-0.62c0-0.25,0.02-0.63,0.03-0.87L46.6,52.6c-0.09,0.25-0.18,0.53-0.28,0.8l-0.46,1.08L46.59,54.08z"/>
			<path class="st13" d="M47.99,54.43l0.36-0.75c0.21,0.09,0.45,0.13,0.74-0.03c0.35-0.2,0.58-0.53,0.58-0.92
				c0-0.39-0.22-0.47-0.55-0.29c-0.2,0.11-0.3,0.21-0.51,0.47l-0.36-0.05l0.1-1.99l1.96-1.08v0.74l-1.27,0.7l-0.06,0.75
				c0.13-0.14,0.24-0.23,0.39-0.31c0.59-0.33,1.1-0.23,1.1,0.58c0,0.85-0.59,1.66-1.27,2.03C48.64,54.6,48.26,54.57,47.99,54.43z"/>
		</g>
	</g>
</g>
</svg>
