<?xml version="1.0" encoding="utf-8"?>
<!-- Generator: Adobe Illustrator 27.0.0, SVG Export Plug-In . SVG Version: 6.00 Build 0)  -->
<svg version="1.1" xmlns="http://www.w3.org/2000/svg" xmlns:xlink="http://www.w3.org/1999/xlink" x="0px" y="0px"
	 viewBox="0 0 130.79 102.54" style="enable-background:new 0 0 130.79 102.54;" xml:space="preserve">
<style type="text/css">
	.st0{fill:#5fd3f2;}
	.st1{fill:#000b30;}
	.st2{fill:#454B56;}
	.st3{fill:#FFFFFF;}
</style>
<g id="BACKGROUND">
</g>
<g id="OBJECTS">
	<g>
		<g id="_x35_87_x2C__computer_x2C__monitor_x2C__device_x2C__pc_x2C__server">
			<g>
				<g>
					<path class="st0" d="M111.72,13.7c-2.97,0-84.64,0-85.87,0c-2.8,0-5.25,2.25-5.25,5.19c0,3.81,0,54.55,0,56.8
						c0,2.77,2.27,5.19,5.25,5.19l0,0c1.57,0,84.29,0,85.87,0c2.8,0,5.25-2.25,5.25-5.19c0-2.25,0-52.99,0-56.8
						C116.8,16.13,114.52,13.7,111.72,13.7z"/>
					<path class="st1" d="M83.04,94.22v6.06H54.54v-6.06c3.85,0,6.99-3.12,6.99-6.93h14.52C76.05,91.11,79.2,94.22,83.04,94.22z"/>
					<path class="st1" d="M39.85,0.72H21.31c-2.8,0-4.9,2.25-4.9,4.85v48.66c0,2.6,1.92,4.68,4.37,4.85c0.17,0,0.35,0,0.52,0h18.54
						c2.8,0,4.9-2.25,4.9-4.85V13.7v-2.25V5.74C44.74,2.97,42.47,0.72,39.85,0.72z"/>
					<rect x="99.48" y="59.25" class="st1" width="4.37" height="4.33"/>
					<rect x="92.84" y="59.25" class="st1" width="4.37" height="4.33"/>
					<rect x="86.37" y="59.25" class="st1" width="4.37" height="4.33"/>
					<path class="st1" d="M66.78,72.06c1.22,0,2.27,1.04,2.27,2.25c0,1.21-1.05,2.25-2.27,2.25c-1.22,0-2.27-1.04-2.27-2.25
						C64.51,72.93,65.55,72.06,66.78,72.06z"/>
					<path class="st2" d="M30.58,39.68c1.22,0,2.27,1.04,2.27,2.25c0,1.21-1.05,2.25-2.27,2.25c-1.22,0-2.27-1.04-2.27-2.25
						C28.31,40.72,29.35,39.68,30.58,39.68z"/>
					<path class="st1" d="M29.35,65.48c1.22,0,2.27,1.04,2.27,2.25s-1.05,2.25-2.27,2.25c-1.22,0-2.27-1.04-2.27-2.25
						S28.13,65.48,29.35,65.48z"/>
					<g>
						<path class="st1" d="M116.8,65.65H36c-1.22,0-2.27,1.04-2.27,2.25c0,1.21,1.05,2.25,2.27,2.25h80.97v-2.25v-2.25H116.8z"/>
					</g>
					<path class="st3" d="M62.23,52.67c-0.7,0-1.57-0.34-1.92-1.04c-0.52-1.04-0.18-2.42,0.87-2.94l30.6-17.32
						c1.05-0.52,2.45-0.17,2.97,0.87c0.52,1.04,0.18,2.42-0.87,2.94l-30.6,17.32C62.93,52.67,62.58,52.67,62.23,52.67z"/>
					<path class="st3" d="M54.54,48.34c-0.7,0-1.57-0.34-1.92-1.04c-0.53-1.04-0.18-2.42,0.87-2.94l15.39-8.66
						c1.05-0.52,2.45-0.17,2.97,0.87c0.53,1.04,0.18,2.42-0.87,2.94l-15.39,8.66C55.24,48.34,54.89,48.34,54.54,48.34z"/>
					<path class="st2" d="M38.27,31.02H22.88c-1.22,0-2.27-1.04-2.27-2.25s1.05-2.25,2.27-2.25h15.39c1.22,0,2.27,1.04,2.27,2.25
						C40.37,30.15,39.5,31.02,38.27,31.02z"/>
					<path class="st2" d="M29.53,24.61h-6.64c-1.22,0-2.27-1.04-2.27-2.25c0-1.21,1.05-2.25,2.27-2.25h6.64
						c1.22,0,2.27,1.04,2.27,2.25C31.63,23.57,30.75,24.61,29.53,24.61z"/>
					<path class="st2" d="M29.53,52.67h-6.64c-1.22,0-2.27-1.04-2.27-2.25s1.05-2.25,2.27-2.25h6.64c1.22,0,2.27,1.04,2.27,2.25
						C31.63,51.8,30.75,52.67,29.53,52.67z"/>
					<path class="st2" d="M88.46,102.54H49.12c-1.22,0-2.27-1.04-2.27-2.25c0-1.21,1.05-2.25,2.27-2.25h39.35
						c1.22,0,2.27,1.04,2.27,2.25C90.74,101.5,89.69,102.54,88.46,102.54z"/>
				</g>
			</g>
		</g>
		<g id="Layer_1_00000028309958665186795520000002954880029181991071_">
		</g>
	</g>
</g>
</svg>
