<?xml version="1.0" encoding="utf-8"?>
<!-- Generator: Adobe Illustrator 27.0.0, SVG Export Plug-In . SVG Version: 6.00 Build 0)  -->
<svg version="1.1" id="Layer_1" xmlns="http://www.w3.org/2000/svg" xmlns:xlink="http://www.w3.org/1999/xlink" x="0px" y="0px"
	 viewBox="0 0 130.79 102.54" style="enable-background:new 0 0 130.79 102.54;" xml:space="preserve">
<style type="text/css">
	.st0{fill:#303033;}
	.st1{fill:#000b30;}
	.st2{fill:#535359;}
	.st3{fill:#0A8074;}
	.st4{fill:#24D2C1;}
	.st5{fill:#5fd3f2;}
	.st6{fill:#5fd3f2;}
	.st7{fill:#5fd3f2;}
	.st8{fill:#E6E7E8;}
	.st9{fill:#FFFFFF;}
	.st10{fill:#C7A496;}
	.st11{fill:#16A89F;}
	.st12{fill:#F0C6B4;}
	.st13{fill:#FF8400;}
	.st14{fill:#000b30;}
</style>
<g id="BACKGROUND">
</g>
<g>
	<g>
		<path class="st0" d="M70.36,81.97l-34.89,20.15c-1.71,0.99-3.11,0.19-3.11-1.79V29.88c0-1.98,1.39-4.39,3.11-5.38L70.36,4.36
			c1.72-0.99,3.11-0.19,3.11,1.79v70.44C73.47,78.57,72.08,80.98,70.36,81.97L70.36,81.97z"/>
		<g>
			<path class="st1" d="M68.36,14.4l-0.79-0.45c-0.43-0.21-1-0.17-1.64,0.2L39.88,29.2c-1.34,0.78-2.42,2.65-2.42,4.19v53.63
				c0,0.71,0.24,1.21,0.61,1.49l0.79,0.47l0.1-0.24c0.28-0.03,0.59-0.13,0.92-0.32l26.06-15.05c1.34-0.77,2.42-2.65,2.42-4.19V15.54
				c0-0.31-0.05-0.58-0.14-0.81L68.36,14.4z"/>
			<path class="st2" d="M66.56,73.71L40.49,88.77c-1.34,0.77-2.42,0.15-2.42-1.4V33.74c0-1.54,1.09-3.42,2.42-4.19L66.56,14.5
				c1.33-0.77,2.42-0.15,2.42,1.4v53.63C68.97,71.07,67.89,72.94,66.56,73.71L66.56,73.71z"/>
		</g>
		<path class="st1" d="M33.27,102.33c-0.56-0.33-0.91-1.02-0.91-2.01V29.88c0-1.98,1.39-4.39,3.11-5.38L70.36,4.36
			c0.84-0.48,1.59-0.54,2.15-0.24l-6.73-3.89v0c-0.57-0.35-1.36-0.32-2.24,0.19L28.65,20.57c-1.71,0.99-3.1,3.4-3.1,5.38v70.44
			c0,0.99,0.35,1.69,0.91,2.01L33.27,102.33z"/>
		<g>
			<path class="st3" d="M33.83,44.49c-0.09-0.06-0.14-0.16-0.14-0.32v-2.3c0-0.31,0.22-0.7,0.5-0.86l2.45-1.41
				c0.13-0.07,0.25-0.08,0.33-0.04l-0.56-0.32c-0.09-0.06-0.21-0.05-0.35,0.03l-2.44,1.41c-0.28,0.16-0.49,0.54-0.49,0.86v2.29
				c0,0.15,0.04,0.24,0.12,0.3v0L33.83,44.49z"/>
			<path class="st4" d="M36.63,43.05l-2.45,1.41c-0.27,0.16-0.5,0.03-0.5-0.29v-2.3c0-0.31,0.22-0.7,0.5-0.86l2.45-1.41
				c0.27-0.16,0.49-0.03,0.49,0.28v2.3C37.12,42.51,36.9,42.89,36.63,43.05L36.63,43.05z"/>
		</g>
		<g>
			<path class="st5" d="M33.83,49.77c-0.08-0.05-0.14-0.17-0.14-0.32v-2.29c0-0.32,0.22-0.7,0.5-0.86l2.44-1.41
				c0.13-0.07,0.25-0.08,0.34-0.04l-0.56-0.33c-0.08-0.05-0.21-0.05-0.35,0.03l-2.45,1.41c-0.27,0.16-0.49,0.54-0.49,0.86v2.29
				c0,0.14,0.05,0.24,0.12,0.3v0L33.83,49.77z"/>
			<path class="st6" d="M36.63,48.33l-2.44,1.41c-0.28,0.16-0.5,0.03-0.5-0.29v-2.29c0-0.32,0.22-0.7,0.5-0.86l2.44-1.41
				c0.28-0.16,0.5-0.03,0.5,0.28v2.3C37.13,47.79,36.91,48.17,36.63,48.33L36.63,48.33z"/>
		</g>
	</g>
	<g>
		<path class="st7" d="M57.84,71.14l-3.34-25.12c0-1.94,1.37-4.31,3.05-5.28l41.75-24.1c1.68-0.97,3.05-0.18,3.05,1.76V45.5
			C102.3,49.43,57.84,71.14,57.84,71.14z"/>
		<path class="st8" d="M96.24,30.27L77.76,40.93c-1.24,0.72-2.24,2.46-2.24,3.9c0,1.43,1,2.01,2.24,1.29l18.48-10.66
			c1.24-0.72,2.25-2.46,2.25-3.89C98.48,30.14,97.48,29.56,96.24,30.27z"/>
		<path class="st8" d="M99.31,50.78l-41.75,24.1c-1.68,0.97-3.05,0.18-3.05-1.76V46.03c17.38,18.09,47.85-0.53,47.85-0.53
			C102.35,47.44,100.99,49.81,99.31,50.78L99.31,50.78z"/>
		<path class="st9" d="M55.36,75.06c-0.52-0.33-0.85-1-0.85-1.94V46.03c0-1.94,1.37-4.31,3.05-5.28l41.75-24.1
			c0.78-0.46,1.5-0.52,2.04-0.27v0l-0.49-0.29c-0.56-0.35-1.34-0.32-2.21,0.18L56.9,40.37c-1.69,0.97-3.05,3.33-3.05,5.28v27.1
			c0,0.97,0.34,1.66,0.9,1.97L55.36,75.06z"/>
		<g>
			<g>
				<polygon class="st9" points="71.72,40.11 59.26,47.34 59.26,63.02 71.72,55.8 				"/>
			</g>
			<polygon class="st10" points="66.9,57.16 64.66,58.45 64.66,54.74 66.9,53.45 			"/>
			<path class="st11" d="M65.83,59.19c0-0.89-0.01-1.65-0.04-1.64c-0.06,0.04-0.11,0.04-0.16,0.01l-0.98-0.76
				c-0.05-0.03-0.11,0.05-0.18,0.11l0,0c-0.07,0.06-2.55,2.16-2.71,2.39c-0.28,0.25-0.47,1.41-0.61,2.59L65.83,59.19z"/>
			<path class="st11" d="M70.39,56.56c-0.13-1.04-0.33-1.97-0.6-1.89c-0.17-0.04-2.64,0.72-2.72,0.74l0,0
				c-0.07,0.03-0.13,0.02-0.18,0.11l-0.98,1.89c-0.04,0.08-0.1,0.14-0.16,0.17c-0.03,0.01-0.04,0.78-0.04,1.67L70.39,56.56z"/>
			<path class="st12" d="M63.01,53.72c-0.42,0.35-0.85,0.23-0.95-0.27c-0.1-0.5,0.16-1.18,0.59-1.53
				C63.07,51.58,63.43,53.38,63.01,53.72z"/>
			<path class="st12" d="M68.5,50.55c0.43-0.15,0.86-0.76,0.95-1.37c0.1-0.61-0.16-0.99-0.59-0.84
				C68.43,48.49,68.07,50.7,68.5,50.55z"/>
			<path class="st12" d="M65.77,55.78c4.21-4.45,2.97-8.72,2.97-8.72s-0.14-2.21-2.89-0.63c-2.4,1.38-2.99,4.08-2.99,4.08
				S61.73,56.29,65.77,55.78z"/>
			<path class="st13" d="M62.48,52.09c0.29-0.24,0.59,0.22,0.59,0.22l0.12-2.5c0,0,1.57,1.47,4.7-0.92
				c-0.58-1.23,0.41-2.04,0.41-2.04s0.25,2.51,0.24,2.42c0.15-0.77,0.57-0.94,0.57-0.94s0.9-5.4-3.32-2.96
				C61.57,47.81,62.47,51.96,62.48,52.09z"/>
			<path class="st14" d="M65.23,57.3l1.11-0.64c0.07-0.04,0.1,0.41,0.05,0.49l-0.56,0.81c-0.03,0.05-0.08,0.08-0.11,0.06l-0.56-0.17
				C65.13,57.81,65.16,57.33,65.23,57.3z"/>
			<path class="st14" d="M66.05,59.06L65.84,58c-0.03-0.02-0.08,0.01-0.11,0.07l-0.2,1.29L66.05,59.06z"/>
			<path class="st11" d="M65.85,56.99l0.89,0.28c0.03,0.01,0.08-0.04,0.09-0.09l0.39-1.78c0.01-0.02,0-0.04-0.01-0.05l-0.28-0.32
				c-0.02-0.02-0.07,0-0.09,0.04l-1.01,1.82C65.82,56.94,65.82,56.99,65.85,56.99z"/>
			<path class="st11" d="M65.73,57.07l-0.89,1.31c-0.03,0.05-0.08,0.06-0.09,0.02l-0.39-1.33c0-0.02,0-0.04,0.01-0.06l0.28-0.64
				c0.02-0.05,0.06-0.08,0.09-0.06l1.01,0.66C65.76,56.98,65.76,57.02,65.73,57.07z"/>
			<path class="st7" d="M65.75,54.4c0.49-0.28,0.84-0.86,0.84-0.95c0-0.09-0.48-0.09-0.59-0.02c-0.12,0.07-0.2,0.26-0.25,0.29
				c-0.05,0.03-0.13-0.07-0.25,0c-0.12,0.07-0.6,0.62-0.6,0.71C64.91,54.52,65.27,54.68,65.75,54.4z"/>
		</g>
	</g>
</g>
</svg>
